<svg
        width="373"
        height="264"
        viewBox="0 0 373 264"
        fill="none"
        xmlns="http://www.w3.org/2000/svg"
      >
        <ellipse cx="248.5" cy="108.5" rx="124.5" ry="98.5" fill="#F391E9" />
        <ellipse cx="124.5" cy="108.5" rx="124.5" ry="98.5" fill="#F391E9" />
        <circle cx="185" cy="78" r="78" fill="#F391E9" />
        <ellipse cx="248.5" cy="157.5" rx="124.5" ry="106.5" fill="#F391E9" />
        <ellipse cx="124.5" cy="157.5" rx="124.5" ry="106.5" fill="#F391E9" />
        <g style="mix-blend-mode:darken" filter="url(#filter0_d)">
          <path
            d="M173.299 202.472C130.168 213.241 98.0411 199.721 85.6497 157"
            stroke="#A613A0"
            stroke-width="6"
          />
        </g>
        <path
          d="M160.782 109.5C160.782 132.42 151.33 130.5 132 130.5C112.67 130.5 99.2822 132.42 99.2822 109.5C99.2822 86.5802 112.67 63 132 63C151.33 63 160.782 86.5802 160.782 109.5Z"
          fill="#AE1784"
        />
        <path
          d="M266.782 109.5C266.782 132.42 257.33 130.5 238 130.5C218.67 130.5 205.282 132.42 205.282 109.5C205.282 86.5802 218.67 63 238 63C257.33 63 266.782 86.5802 266.782 109.5Z"
          fill="#AE1784"
        />
        <defs>
          <filter
            id="filter0_d"
            x="78.7684"
            y="156.164"
            width="99.2576"
            height="60.837"
            filterUnits="userSpaceOnUse"
            color-interpolation-filters="sRGB"
          >
            <feFlood flood-opacity="0" result="BackgroundImageFix" />
            <feColorMatrix
              in="SourceAlpha"
              type="matrix"
              values="0 0 0 0 0 0 0 0 0 0 0 0 0 0 0 0 0 0 127 0"
            />
            <feOffset dy="4" />
            <feGaussianBlur stdDeviation="2" />
            <feColorMatrix
              type="matrix"
              values="0 0 0 0 0 0 0 0 0 0 0 0 0 0 0 0 0 0 0.25 0"
            />
            <feBlend
              mode="normal"
              in2="BackgroundImageFix"
              result="effect1_dropShadow"
            />
            <feBlend
              mode="normal"
              in="SourceGraphic"
              in2="effect1_dropShadow"
              result="shape"
            />
          </filter>
        </defs>
      </svg>
